<svg width="48" height="48" viewBox="0 0 48 48" fill="none" xmlns="http://www.w3.org/2000/svg">
<path d="M10.7443 48H0.792857V15.9529H10.7443V48ZM5.76321 11.5813C2.58107 11.5813 0 8.94556 0 5.76334C2.27764e-08 4.23481 0.607194 2.76888 1.68801 1.68804C2.76882 0.607208 4.23471 0 5.76321 0C7.29171 0 8.75761 0.607208 9.83842 1.68804C10.9192 2.76888 11.5264 4.23481 11.5264 5.76334C11.5264 8.94556 8.94429 11.5813 5.76321 11.5813ZM47.9893 48H38.0593V32.3997C38.0593 28.6817 37.9843 23.9137 32.8854 23.9137C27.7114 23.9137 26.9186 27.9531 26.9186 32.1318V48H16.9779V15.9529H26.5221V20.3244H26.6614C27.99 17.8065 31.2354 15.1493 36.0771 15.1493C46.1486 15.1493 48 21.7816 48 30.396V48H47.9893Z" fill="white"/>
</svg>
