<svg width="42" height="42" viewBox="0 0 42 42" fill="none" xmlns="http://www.w3.org/2000/svg">
<circle cx="21" cy="21" r="21" fill="#E6AC00"/>
<path d="M28.7565 19.0911L29.724 20.034C30.1337 20.4332 30.1337 21.0788 29.724 21.4738L21.2565 29.7306C20.8468 30.1298 20.1844 30.1298 19.7791 29.7306L11.3072 21.4738C10.8976 21.0746 10.8976 20.429 11.3072 20.034L12.2747 19.0911C12.6887 18.6876 13.3642 18.6961 13.7695 19.1081L18.7724 24.2261V12.0194C18.7724 11.4545 19.2387 11 19.8184 11H21.2129C21.7925 11 22.2588 11.4545 22.2588 12.0194V24.2261L27.2618 19.1081C27.6671 18.6918 28.3425 18.6834 28.7565 19.0911V19.0911Z" fill="white"/>
</svg>
